<svg width="285" height="300" viewBox="0 0 285 300" fill="none" xmlns="http://www.w3.org/2000/svg">
  <g transform="translate(0 300) scale(1 -1)">
    <path fill="#907FDF" d="M284.493 216.496C271.771 225.025 256.467 230 240 230C195.817 230 160 194.183 160 150C160 105.817 195.817 70 240 70C256.467 70 271.771 74.975 284.493 83.504C259.98 34.021 208.963 0 150 0C67.157 0 0 67.157 0 150C0 232.843 67.157 300 150 300C208.963 300 259.98 265.979 284.493 216.496Z"/>
    <path fill="#524B9B" d="M240 230C256.466 230 271.771 225.025 284.493 216.496C284.473 216.536 284.454 216.575 284.434 216.614C258.33 235.122 226.435 246 192 246C103.634 246 32 174.366 32 86C32 74.783 33.154 63.837 35.35 53.271C62.866 20.691 104.017 0 150 0C208.963 0 259.98 34.021 284.493 83.504C271.771 74.975 256.466 70 240 70C195.817 70 160 105.817 160 150C160 194.183 195.817 230 240 230Z"/>
    <path fill="#3A3A60" d="M272.541 223.105C262.599 227.537 251.587 230 240 230C195.817 230 160 194.183 160 150C160 105.817 195.817 70 240 70C256.466 70 271.771 74.975 284.493 83.504C259.98 34.021 208.963 0 150 0C146.518 0 143.064 0.119 139.642 0.352C106.003 23.849 84 62.855 84 107C84 178.797 142.203 237 214 237C235.058 237 254.947 231.993 272.541 223.105Z"/>
  </g>
</svg>
